<svg width="832" height="179" viewBox="0 0 832 179" fill="none" xmlns="http://www.w3.org/2000/svg">
<path d="M30.7164 50.1777L20.4699 35.7364H0.00769043L10.2541 50.1777H30.7164Z" fill="white"/>
<path d="M20.4699 143.045L58.5444 89.3907L38.617 61.3028H18.1471L38.0821 89.3907L0 143.045H20.4699Z" fill="#D6A46D"/>
<path d="M129.284 128.604L139.53 143.045H160L149.754 128.604H129.284Z" fill="white"/>
<path d="M139.53 35.7364L101.456 89.3906L121.391 117.478H141.853L121.925 89.3906L160 35.7364H139.53Z" fill="#D6A46D"/>
<path d="M88.3514 0H71.6561V178.774H88.3514V0Z" fill="#D6A46D"/>
<path d="M193.766 112.472C195.262 113.474 196.901 114.242 198.626 114.751C200.876 115.44 203.218 115.775 205.57 115.746C208.105 115.854 210.627 115.331 212.911 114.223C214.795 113.189 216.298 111.574 217.196 109.616C218.281 107.181 218.951 104.582 219.18 101.925C219.554 98.3449 219.73 94.7472 219.706 91.1481V58.4704H225.826V89.8744C225.847 94.1171 225.612 98.3571 225.122 102.571C224.769 106.015 223.854 109.376 222.414 112.522C221.129 115.237 219.026 117.478 216.402 118.93C213.711 120.429 210.153 121.182 205.729 121.189C203.159 121.218 200.597 120.883 198.12 120.194C195.936 119.571 193.869 118.593 192 117.298L193.766 112.472Z" fill="white"/>
<path d="M275.97 58.4704H281.139L306.93 120.751H300.462L292.705 101.278H264.315L256.558 120.751H250.001L275.97 58.4704ZM290.8 96.4517L278.51 65.7045L266.239 96.4517H290.8Z" fill="white"/>
<path d="M326.789 58.4704L347.075 91.9839L367.539 58.4704H374.185L350.13 97.596V120.751H344.01V97.4169L320.054 58.4704H326.789Z" fill="white"/>
<path d="M413.19 58.4704H418.348L444.139 120.751H437.662L429.904 101.278H401.534L393.777 120.751H387.21L413.19 58.4704ZM427.99 96.4517L415.729 65.7045L403.458 96.4517H427.99Z" fill="white"/>
<path d="M470.555 120.751V58.4704H476.676V94.6606L510.869 58.3809H517.605L492.25 85.7847L518.954 120.751H512.01L488.312 89.4764L476.676 101.606V120.751H470.555Z" fill="white"/>
<path d="M565.884 121.189C561.767 121.249 557.692 120.35 553.98 118.562C550.46 116.837 547.333 114.401 544.795 111.407C539.636 105.314 536.805 97.5797 536.809 89.5858C536.777 81.4728 539.754 73.6378 545.162 67.605C547.777 64.6752 550.942 62.2913 554.476 60.5898C558.075 58.8564 562.021 57.9715 566.013 58.0027C570.14 57.9427 574.221 58.8741 577.917 60.7192C581.43 62.4944 584.542 64.9734 587.062 68.003C589.591 71.0325 591.587 74.4714 592.965 78.1725C595.786 85.7158 595.755 94.0349 592.875 101.556C591.456 105.261 589.383 108.679 586.755 111.646C584.162 114.57 581.007 116.939 577.48 118.612C573.858 120.338 569.894 121.219 565.884 121.189V121.189ZM542.88 89.5858C542.873 92.9171 543.433 96.2252 544.537 99.3672C545.6 102.405 547.2 105.226 549.258 107.696C551.275 110.103 553.759 112.074 556.559 113.487C559.502 114.908 562.728 115.639 565.993 115.624C569.259 115.608 572.478 114.847 575.407 113.397C578.207 111.923 580.678 109.892 582.668 107.427C584.681 104.93 586.233 102.093 587.251 99.0488C588.294 95.9999 588.826 92.7991 588.828 89.5758C588.84 86.2571 588.279 82.9614 587.172 79.8343C586.095 76.7889 584.479 73.9639 582.4 71.4957C580.386 69.088 577.902 67.1203 575.099 65.7144C572.168 64.3126 568.959 63.5918 565.711 63.6055C562.464 63.6193 559.261 64.3674 556.341 65.794C553.538 67.2409 551.065 69.2572 549.08 71.7146C547.063 74.2164 545.495 77.0515 544.447 80.0929C543.393 83.1454 542.863 86.3553 542.88 89.5858V89.5858Z" fill="white"/>
<path d="M624.033 120.751V58.4704H650.271C652.813 58.4409 655.328 59.01 657.611 60.1322C659.827 61.2428 661.805 62.7774 663.434 64.6497C665.072 66.5164 666.375 68.6544 667.283 70.9683C668.172 73.217 668.63 75.6141 668.632 78.0332C668.651 80.9275 668.07 83.7942 666.926 86.4514C665.848 89.0088 664.206 91.2881 662.125 93.1183C660.042 94.9364 657.522 96.1781 654.814 96.7204L670.031 120.751H663.087L648.485 97.7652H630.154V120.751H624.033ZM630.154 92.3322H650.449C652.735 92.3885 654.977 91.6892 656.828 90.3421C658.658 88.9658 660.103 87.139 661.024 85.0384C662.013 82.8509 662.521 80.4751 662.512 78.073C662.532 75.6447 661.945 73.25 660.805 71.1076C659.733 69.0381 658.173 67.2621 656.262 65.9334C654.407 64.6254 652.191 63.9298 649.924 63.9432H630.154V92.3322Z" fill="white"/>
<path d="M704.76 69.7842V120.751H698.629V58.4704H703.708L744.458 110.402V58.56H750.579V120.751H744.895L704.76 69.7842Z" fill="white"/>
<path d="M783.641 120.751V58.4704H789.762V94.6606L823.955 58.3809H830.691L805.326 85.7847L832 120.751H825.056L801.358 89.4764L789.762 101.606V120.751H783.641Z" fill="white"/>
</svg>
